<svg width="21" height="17" viewBox="0 0 21 17" fill="none" xmlns="http://www.w3.org/2000/svg">
<path d="M18.6318 0.821289H2.63184C1.53184 0.821289 0.641836 1.72129 0.641836 2.82129L0.631836 14.8213C0.631836 15.9213 1.53184 16.8213 2.63184 16.8213H18.6318C19.7318 16.8213 20.6318 15.9213 20.6318 14.8213V2.82129C20.6318 1.72129 19.7318 0.821289 18.6318 0.821289ZM18.2318 5.07129L11.1618 9.49129C10.8418 9.69129 10.4218 9.69129 10.1018 9.49129L3.03184 5.07129C2.78184 4.91129 2.63184 4.64129 2.63184 4.35129C2.63184 3.68129 3.36184 3.28129 3.93184 3.63129L10.6318 7.82129L17.3318 3.63129C17.9018 3.28129 18.6318 3.68129 18.6318 4.35129C18.6318 4.64129 18.4818 4.91129 18.2318 5.07129Z" fill="white"/>
</svg>
