<svg width="19" height="19" viewBox="0 0 19 19" fill="none" xmlns="http://www.w3.org/2000/svg">
<path d="M16.8355 12.5894L14.2955 12.2994C13.6855 12.2294 13.0855 12.4394 12.6555 12.8694L10.8155 14.7094C7.98551 13.2694 5.66551 10.9594 4.22551 8.11936L6.07551 6.26935C6.50551 5.83935 6.71551 5.23936 6.64551 4.62936L6.35551 2.10936C6.23551 1.09936 5.38551 0.339355 4.36551 0.339355H2.63551C1.50551 0.339355 0.565509 1.27936 0.635509 2.40936C1.16551 10.9494 7.99551 17.7694 16.5255 18.2994C17.6555 18.3694 18.5955 17.4294 18.5955 16.2994V14.5694C18.6055 13.5594 17.8455 12.7094 16.8355 12.5894Z" fill="white"/>
</svg>
