<svg width="116" height="99" viewBox="0 0 116 99" fill="none" xmlns="http://www.w3.org/2000/svg">
<path d="M14.9154 2.12393L14.9154 2.12394L1.43826 27.9553L1.17238 27.8165L1.43826 27.9553C1.12339 28.5587 1.14669 29.2823 1.49934 29.8645L14.9154 2.12393ZM14.9154 2.12393C15.2507 1.48115 15.9157 1.07808 16.6408 1.07808H100.199C100.924 1.07808 101.589 1.48113 101.924 2.12399M14.9154 2.12393L14.6494 1.98517C15.0364 1.24326 15.8039 0.778076 16.6408 0.778076H100.199C101.036 0.778076 101.803 1.24326 102.19 1.98517M7.97732 97.8289C8.39511 98.2465 8.97463 98.487 9.56537 98.487H107.274C107.865 98.487 108.445 98.2467 108.862 97.8289C109.28 97.4111 109.52 96.8336 109.52 96.2408V83.8868C109.52 82.6492 108.512 81.6406 107.274 81.6406C106.037 81.6406 105.03 82.6469 105.028 83.8826M7.97732 97.8289L105.028 93.9949V93.6949V83.8871V83.8826M7.97732 97.8289L8.18945 97.6168C8.18943 97.6167 8.18942 97.6167 8.1894 97.6167M7.97732 97.8289L8.1894 97.6167M105.028 83.8826L105.328 83.8831M105.028 83.8826H105.328V83.8831M105.328 83.8831C105.33 82.8128 106.202 81.9407 107.274 81.9407C108.346 81.9407 109.22 82.8149 109.22 83.8868V96.2408C109.22 96.7537 109.012 97.255 108.65 97.6168L108.65 97.6168C108.289 97.9784 107.785 98.187 107.274 98.187H9.56537C9.05437 98.187 8.55107 97.9782 8.1894 97.6167M105.328 83.8831V83.8871V93.9949V94.2949H105.028H11.8116H11.5116V93.9949V31.1018V30.8018H11.8116H105.028H105.328V31.1018V76.5823C105.328 77.6542 106.202 78.5284 107.274 78.5284C108.346 78.5284 109.22 77.6542 109.22 76.5823V31.1018V30.8018H109.52H113.676C114.356 30.8018 114.987 30.4464 115.34 29.8645C115.693 29.2826 115.716 28.5586 115.401 27.9553L101.924 2.12399M8.1894 97.6167L115.667 27.8165L102.19 1.98517M8.1894 97.6167C7.82771 97.255 7.61919 96.754 7.61919 96.2408V31.1018V30.8018H7.31919H3.16375C2.4832 30.8018 1.85228 30.4464 1.4994 29.8646L8.1894 97.6167ZM101.924 2.12399L102.19 1.98517M101.924 2.12399L101.924 2.12394L102.19 1.98517M6.6033 26.4706L6.37438 26.9094H6.86928H109.97H110.465L110.236 26.4706L99.1032 5.1319L99.0191 4.97067H98.8372H18.0025H17.8206L17.7365 5.1319L6.6033 26.4706Z" fill="#3284FF" stroke="#F2F2F2" stroke-width="0.6"/>
<path d="M60.3159 80.5174C60.3159 81.5647 59.467 82.4136 58.4198 82.4136C57.3725 82.4136 56.5236 81.5647 56.5236 80.5174C56.5236 79.4702 57.3725 78.6212 58.4198 78.6212C59.467 78.6212 60.3159 79.4702 60.3159 80.5174Z" fill="#3284FF" stroke="#F2F2F2" stroke-width="0.7"/>
<path d="M58.4198 42.6823C59.4661 42.6823 60.3159 43.5339 60.3159 44.5785V70.4098C60.3159 71.4544 59.4661 72.306 58.4198 72.306C57.3754 72.306 56.5236 71.4541 56.5236 70.4098V44.5785C56.5236 43.5341 57.3754 42.6823 58.4198 42.6823Z" fill="#3284FF" stroke="#F2F2F2" stroke-width="0.7"/>
<path d="M23.0424 41.9825H22.6924V42.3325V50.1941C22.6924 51.2412 21.8435 52.0903 20.7962 52.0903C19.749 52.0903 18.9 51.2412 18.9 50.1941V40.0863C18.9 39.0392 19.749 38.1901 20.7962 38.1901H30.9041C31.9513 38.1901 32.8002 39.039 32.8002 40.0863C32.8002 41.1333 31.9513 41.9825 30.9041 41.9825H23.0424Z" fill="#3284FF" stroke="#F2F2F2" stroke-width="0.7"/>
<path d="M94.1472 42.3325V41.9825H93.7972H85.9355C84.8885 41.9825 84.0393 41.1333 84.0393 40.0863C84.0393 39.0392 84.8885 38.1901 85.9355 38.1901H96.0433C97.0904 38.1901 97.9395 39.0392 97.9395 40.0863V50.1941C97.9395 51.2411 97.0904 52.0903 96.0433 52.0903C94.9963 52.0903 94.1472 51.2411 94.1472 50.1941V42.3325Z" fill="#3284FF" stroke="#F2F2F2" stroke-width="0.7"/>
<path d="M93.7972 83.1139H94.1472V82.7639V74.9023C94.1472 73.8553 94.9963 73.0061 96.0433 73.0061C97.0904 73.0061 97.9395 73.8551 97.9395 74.9023V85.0101C97.9395 86.0572 97.0904 86.9063 96.0433 86.9063H85.9355C84.8885 86.9063 84.0393 86.0572 84.0393 85.0101C84.0393 83.9631 84.8885 83.1139 85.9355 83.1139H93.7972Z" fill="#3284FF" stroke="#F2F2F2" stroke-width="0.7"/>
<path d="M22.6924 82.7639V83.1139H23.0424H30.9041C31.9513 83.1139 32.8002 83.9631 32.8002 85.0101C32.8002 86.0572 31.9513 86.9063 30.9041 86.9063H20.7962C19.749 86.9063 18.9 86.0572 18.9 85.0101V74.9023C18.9 73.8552 19.749 73.0061 20.7962 73.0061C21.8435 73.0061 22.6924 73.855 22.6924 74.9023V82.7639Z" fill="#3284FF" stroke="#F2F2F2" stroke-width="0.7"/>
</svg>
